<svg width="20" height="20" viewBox="0 0 20 20" fill="none" xmlns="http://www.w3.org/2000/svg">
<path d="M10.4127 11.3299C9.66549 11.3264 8.92317 11.2093 8.21117 10.9827C7.07356 10.6021 6.2286 9.63903 5.99924 8.46157C5.74828 7.25273 6.20564 5.97457 7.25381 4.9549C7.36627 4.84537 7.48314 4.74044 7.60441 4.64013C8.67762 3.74165 10.1245 3.4294 11.4727 3.80533C12.778 4.22194 13.6799 5.41479 13.725 6.78417C13.7739 7.57241 13.517 8.34916 13.0077 8.9528C12.6149 9.44756 11.9786 9.68125 11.3589 9.55827C11.1055 9.50568 10.8844 9.35222 10.7466 9.1332C10.6229 8.92046 10.5911 8.66651 10.6587 8.42987C10.9502 7.328 11.2466 5.6535 11.2495 5.63653C11.2702 5.51923 11.3519 5.42188 11.4639 5.38116C11.5758 5.34044 11.701 5.36253 11.7922 5.43911C11.8834 5.51569 11.9269 5.63513 11.9062 5.75243C11.8938 5.8221 11.602 7.4715 11.3033 8.60027C11.282 8.66282 11.2873 8.73138 11.3181 8.78987C11.3642 8.85365 11.4337 8.8965 11.5114 8.909C11.8907 8.97231 12.2739 8.82014 12.5064 8.51383C12.9019 8.04072 13.1 7.43351 13.0597 6.8182C13.0271 5.72819 12.3124 4.77656 11.2746 4.44153C10.1418 4.12997 8.92829 4.39613 8.02991 5.1532C7.92281 5.2421 7.81864 5.33517 7.71871 5.4325C7.20051 5.93657 6.37301 6.9825 6.65184 8.32583C6.83919 9.26433 7.50947 10.0335 8.41354 10.3473C9.97687 10.846 12.2233 10.9061 13.4069 9.4344C13.5232 9.29435 13.7303 9.27349 13.8722 9.38754C14.014 9.50159 14.0382 9.70836 13.9264 9.85203C13.0512 10.9405 11.7193 11.3299 10.4127 11.3299Z" fill="#BA9166"/>
<path d="M9.27154 9.60151C8.9192 9.60756 8.57553 9.49202 8.29841 9.27434C7.65861 8.76231 7.64101 7.87281 7.82038 7.26704C7.88078 7.0653 7.96189 6.87035 8.06241 6.68531C8.31252 6.18068 8.71243 5.76565 9.20744 5.497C9.82389 5.17714 10.5771 5.29844 11.0619 5.79567C11.3024 6.05928 11.4836 6.37143 11.5932 6.71104C11.6513 6.88338 11.5605 7.07044 11.3892 7.13145C11.2179 7.19246 11.0293 7.10491 10.9653 6.93467C10.8863 6.68377 10.7549 6.45249 10.5799 6.25611C10.2972 5.96703 9.85677 5.90125 9.50198 6.09514C9.13074 6.3045 8.83241 6.62236 8.64698 7.00611C8.56905 7.14988 8.50611 7.30129 8.45914 7.45794C8.32961 7.89611 8.35808 8.46794 8.71551 8.75417C9.10627 9.06797 9.76551 8.93531 10.1364 8.61534C10.4128 8.3665 10.6503 8.07758 10.841 7.75824C10.9027 7.65479 11.0155 7.5927 11.1359 7.59584C11.2563 7.59899 11.3657 7.66687 11.422 7.77341C11.4782 7.87994 11.4726 8.00854 11.4073 8.10977C11.1815 8.48606 10.9003 8.82623 10.5733 9.11887C10.2088 9.42641 9.74842 9.59711 9.27154 9.60151Z" fill="#BA9166"/>
<path d="M19 19.9999H1C0.447967 19.9993 0.000606237 19.5519 0 18.9999V6.66655C5.24e-06 6.53729 0.0747389 6.41969 0.191761 6.36479C0.308783 6.30989 0.446994 6.3276 0.5464 6.41022L8.72543 13.2077C9.46549 13.8189 10.5352 13.8187 11.2751 13.2073L19.4533 6.41022C19.5527 6.32743 19.6911 6.30962 19.8082 6.36454C19.9253 6.41946 20.0001 6.53719 20 6.66655V18.9999C19.9994 19.5519 19.552 19.9993 19 19.9999ZM0.666667 7.37699V18.9999C0.666905 19.1839 0.816004 19.333 1 19.3332H19C19.184 19.3331 19.3332 19.1839 19.3333 18.9999V7.37699L11.7007 13.7203C10.7138 14.5359 9.28692 14.5361 8.2998 13.7208L0.666667 7.37699Z" fill="#BA9166"/>
<path d="M0.33366 6.99986C0.18847 6.99999 0.0598946 6.90613 0.0157816 6.7678C-0.0283314 6.62947 0.0221656 6.4785 0.140626 6.39456L3.14063 4.26789C3.29083 4.16379 3.49684 4.20004 3.60249 4.34915C3.70814 4.49826 3.67403 4.70463 3.52603 4.81182L0.526026 6.93849C0.469852 6.97846 0.402605 6.99991 0.33366 6.99986Z" fill="#BA9166"/>
<path d="M19.6664 6.99986C19.5974 6.99991 19.5302 6.97846 19.474 6.93849L16.474 4.81182C16.326 4.70463 16.2919 4.49826 16.3976 4.34915C16.5032 4.20004 16.7092 4.16379 16.8594 4.26789L19.8594 6.39456C19.9779 6.4785 20.0284 6.62947 19.9843 6.7678C19.9401 6.90613 19.8116 6.99999 19.6664 6.99986Z" fill="#BA9166"/>
<path d="M13.0797 2.33328C13.0107 2.33331 12.9434 2.31187 12.8871 2.27191L11.2938 1.14191C10.5542 0.516907 9.47339 0.510396 8.72628 1.12644L7.11295 2.27194C7.01579 2.34085 6.88924 2.35268 6.78099 2.30299C6.67273 2.25329 6.59921 2.14962 6.58812 2.03102C6.57703 1.91242 6.63005 1.79692 6.72722 1.72801L8.32055 0.598012C9.30509 -0.207 10.7223 -0.200597 11.6995 0.613278L13.2728 1.72788C13.3914 1.81181 13.4419 1.96285 13.3978 2.10124C13.3537 2.23963 13.225 2.3335 13.0797 2.33328Z" fill="#BA9166"/>
<path d="M0.54995 19.8199C0.409473 19.82 0.283996 19.7321 0.236207 19.6C0.188418 19.4679 0.228575 19.32 0.336616 19.2302L7.94328 12.9102C8.03469 12.8325 8.16081 12.8099 8.27351 12.851C8.38622 12.8922 8.46812 12.9907 8.48796 13.109C8.5078 13.2274 8.46251 13.3472 8.36938 13.4229L0.762716 19.7429C0.702994 19.7927 0.627701 19.8199 0.54995 19.8199Z" fill="#BA9166"/>
<path d="M19.4495 19.8199C19.3718 19.8199 19.2966 19.7927 19.2369 19.7429L11.6303 13.4229C11.5371 13.3472 11.4918 13.2274 11.5117 13.109C11.5315 12.9907 11.6134 12.8922 11.7261 12.851C11.8388 12.8099 11.9649 12.8325 12.0564 12.9102L19.6628 19.2302C19.7709 19.32 19.811 19.4679 19.7632 19.6C19.7154 19.7321 19.59 19.82 19.4495 19.8199V19.8199Z" fill="#BA9166"/>
<path d="M16.6667 9.49339C16.4826 9.49339 16.3333 9.34415 16.3333 9.16006V2.33599C16.3324 2.34299 16.319 2.33356 16.2967 2.33339H3.70333C3.6886 2.33249 3.67414 2.33767 3.66333 2.34772L3.66667 9.16006C3.66667 9.34415 3.51743 9.49339 3.33333 9.49339C3.14924 9.49339 3 9.34415 3 9.16006V2.33339C3.01075 1.95536 3.32526 1.65724 3.70333 1.66672H16.2967C16.6747 1.65728 16.9892 1.95537 17 2.33339V9.16006C17 9.34415 16.8508 9.49339 16.6667 9.49339Z" fill="#BA9166"/>
</svg>
