<svg width="20" height="20" viewBox="0 0 20 20" fill="none" xmlns="http://www.w3.org/2000/svg">
<path d="M19.0625 4.375H17.9731C18.0659 4.0708 18.117 3.75543 18.125 3.4375C18.125 2.69158 17.8287 1.97621 17.3012 1.44876C16.7738 0.921316 16.0584 0.625 15.3125 0.625C14.5666 0.625 13.8512 0.921316 13.3238 1.44876C12.7963 1.97621 12.5 2.69158 12.5 3.4375C12.508 3.75543 12.5591 4.0708 12.6519 4.375H4.975C4.89217 3.83115 4.60748 3.33848 4.17764 2.99515C3.74781 2.65182 3.2044 2.48305 2.65569 2.52247C2.10699 2.56189 1.59328 2.8066 1.21693 3.20784C0.840586 3.60909 0.629237 4.1374 0.625 4.6875V17.1875C0.625662 17.7675 0.856342 18.3235 1.26643 18.7336C1.67653 19.1437 2.23254 19.3743 2.8125 19.375H19.0625C19.1454 19.375 19.2249 19.3421 19.2835 19.2835C19.3421 19.2249 19.375 19.1454 19.375 19.0625V4.6875C19.375 4.60462 19.3421 4.52513 19.2835 4.46653C19.2249 4.40792 19.1454 4.375 19.0625 4.375ZM15.3125 1.25C15.8925 1.25066 16.4485 1.48134 16.8586 1.89143C17.2687 2.30153 17.4993 2.85754 17.5 3.4375C17.5 4.84594 15.9291 7.09375 15.3125 7.92281C14.6956 7.09375 13.125 4.84719 13.125 3.4375C13.1257 2.85754 13.3563 2.30153 13.7664 1.89143C14.1765 1.48134 14.7325 1.25066 15.3125 1.25ZM1.25 4.6875C1.25 4.2731 1.41462 3.87567 1.70765 3.58265C2.00067 3.28962 2.3981 3.125 2.8125 3.125C3.2269 3.125 3.62433 3.28962 3.91735 3.58265C4.21038 3.87567 4.375 4.2731 4.375 4.6875V15.6562C4.17155 15.4479 3.92846 15.2823 3.66005 15.1694C3.39163 15.0564 3.10332 14.9983 2.8121 14.9985C2.52089 14.9986 2.23265 15.0571 1.96437 15.1704C1.69609 15.2837 1.4532 15.4495 1.25 15.6581V4.6875ZM18.75 18.75H2.8125C2.50347 18.75 2.20137 18.6584 1.94442 18.4867C1.68747 18.315 1.4872 18.071 1.36894 17.7854C1.25068 17.4999 1.21973 17.1858 1.28002 16.8827C1.34031 16.5796 1.48913 16.3012 1.70765 16.0826C1.92617 15.8641 2.20458 15.7153 2.50767 15.655C2.81077 15.5947 3.12493 15.6257 3.41044 15.7439C3.69595 15.8622 3.93998 16.0625 4.11167 16.3194C4.28336 16.5764 4.375 16.8785 4.375 17.1875C4.375 17.2704 4.40792 17.3499 4.46653 17.4085C4.52513 17.4671 4.60462 17.5 4.6875 17.5C4.77038 17.5 4.84987 17.4671 4.90847 17.4085C4.96708 17.3499 5 17.2704 5 17.1875V5H12.8647C13.4454 6.29784 14.1857 7.5182 15.0684 8.63281C15.0977 8.66942 15.1349 8.69898 15.1771 8.71929C15.2193 8.7396 15.2656 8.75015 15.3125 8.75015C15.3594 8.75015 15.4057 8.7396 15.4479 8.71929C15.4901 8.69898 15.5273 8.66942 15.5566 8.63281C16.4393 7.5182 17.1796 6.29784 17.7603 5H18.75V18.75Z" fill="#BA9166"/>
<path d="M16.875 3.4375C16.875 3.12847 16.7834 2.82637 16.6117 2.56942C16.44 2.31247 16.196 2.1122 15.9104 1.99394C15.6249 1.87568 15.3108 1.84473 15.0077 1.90502C14.7046 1.96531 14.4262 2.11413 14.2076 2.33265C13.9891 2.55117 13.8403 2.82958 13.78 3.13267C13.7197 3.43577 13.7507 3.74993 13.8689 4.03544C13.9872 4.32095 14.1875 4.56498 14.4444 4.73667C14.7014 4.90836 15.0035 5 15.3125 5C15.7268 4.9995 16.1239 4.83472 16.4168 4.54181C16.7097 4.24889 16.8745 3.85175 16.875 3.4375ZM14.375 3.4375C14.375 3.25208 14.43 3.07082 14.533 2.91665C14.636 2.76248 14.7824 2.64232 14.9537 2.57136C15.125 2.50041 15.3135 2.48184 15.4954 2.51801C15.6773 2.55419 15.8443 2.64348 15.9754 2.77459C16.1065 2.9057 16.1958 3.07275 16.232 3.2546C16.2682 3.43646 16.2496 3.62496 16.1786 3.79627C16.1077 3.96757 15.9875 4.11399 15.8334 4.217C15.6792 4.32002 15.4979 4.375 15.3125 4.375C15.0639 4.375 14.8254 4.27623 14.6496 4.10041C14.4738 3.9246 14.375 3.68614 14.375 3.4375Z" fill="#BA9166"/>
<path d="M9.6875 8.75V6.25H9.0625V8.4375H6.25V9.0625H9.375C9.45788 9.0625 9.53737 9.02958 9.59597 8.97097C9.65458 8.91237 9.6875 8.83288 9.6875 8.75Z" fill="#BA9166"/>
<path d="M11.25 9.0625H14.0625V8.4375H11.5625V6.25H10.9375V8.75C10.9375 8.83288 10.9704 8.91237 11.029 8.97097C11.0876 9.02958 11.1671 9.0625 11.25 9.0625Z" fill="#BA9166"/>
<path d="M14.375 10.3125H11.25C11.1671 10.3125 11.0876 10.3454 11.029 10.404C10.9704 10.4626 10.9375 10.5421 10.9375 10.625V13.125C10.9375 13.2079 10.9704 13.2874 11.029 13.346C11.0876 13.4046 11.1671 13.4375 11.25 13.4375H14.375C14.4579 13.4375 14.5374 13.4046 14.596 13.346C14.6546 13.2874 14.6875 13.2079 14.6875 13.125V10.625C14.6875 10.5421 14.6546 10.4626 14.596 10.404C14.5374 10.3454 14.4579 10.3125 14.375 10.3125ZM14.0625 12.8125H11.5625V10.9375H14.0625V12.8125Z" fill="#BA9166"/>
<path d="M9.6875 13.125V10.625C9.6875 10.5421 9.65458 10.4626 9.59597 10.404C9.53737 10.3454 9.45788 10.3125 9.375 10.3125H6.25V10.9375H9.0625V12.8125H6.25V13.4375H9.375C9.45788 13.4375 9.53737 13.4046 9.59597 13.346C9.65458 13.2874 9.6875 13.2079 9.6875 13.125Z" fill="#BA9166"/>
<path d="M14.375 15.3125H6.25V15.9375H14.0625V17.5H14.6875V15.625C14.6875 15.5421 14.6546 15.4626 14.596 15.404C14.5374 15.3454 14.4579 15.3125 14.375 15.3125Z" fill="#BA9166"/>
<path d="M15.9375 10.625V13.125C15.9375 13.2079 15.9704 13.2874 16.029 13.346C16.0876 13.4046 16.1671 13.4375 16.25 13.4375H17.5V12.8125H16.5625V10.9375H17.5V10.3125H16.25C16.1671 10.3125 16.0876 10.3454 16.029 10.404C15.9704 10.4626 15.9375 10.5421 15.9375 10.625Z" fill="#BA9166"/>
<path d="M15.9375 15.625V17.5H16.5625V15.9375H17.5V15.3125H16.25C16.1671 15.3125 16.0876 15.3454 16.029 15.404C15.9704 15.4626 15.9375 15.5421 15.9375 15.625Z" fill="#BA9166"/>
</svg>
