<svg width="51" height="51" viewBox="0 0 51 51" fill="none" xmlns="http://www.w3.org/2000/svg">
<g clip-path="url(#clip0)">
<path d="M15.6792 45.915H5.91357V47.3799H15.6792V45.915Z" fill="#BA9166"/>
<path d="M45.9194 45.915H39.1812V47.3799H45.9194V45.915Z" fill="#BA9166"/>
<path d="M37.7163 45.915H36.2515V47.3799H37.7163V45.915Z" fill="#BA9166"/>
<path d="M11.9028 39.7461H9.21729V41.2109H11.9028V39.7461Z" fill="#BA9166"/>
<path d="M41.7856 39.2578H39.0513V40.7227H41.7856V39.2578Z" fill="#BA9166"/>
<path d="M34.9913 4.7998C33.7482 4.7998 32.6177 5.28789 31.7788 6.08125V2.70625C31.7789 1.21406 30.5648 0 29.0725 0C27.5803 0 26.3663 1.21406 26.3663 2.70625V6.57959H20.4621V5.33809C20.4621 3.8459 19.248 2.63184 17.7558 2.63184H10.913C9.42075 2.63184 8.20679 3.8459 8.20679 5.33809C8.20679 6.83037 9.42085 8.04443 10.913 8.04443H13.602V10.0754C13.602 13.3815 16.2918 16.0714 19.5981 16.0714H27.0988C29.2277 16.0714 31.0278 14.6421 31.5933 12.6931C32.447 13.5954 33.6541 14.1601 34.9914 14.1601C37.5719 14.1602 39.6714 12.0606 39.6714 9.47998C39.6714 6.89932 37.5719 4.7998 34.9913 4.7998ZM10.913 6.57959C10.2285 6.57959 9.67163 6.02266 9.67163 5.33809C9.67163 4.65352 10.2286 4.09668 10.913 4.09668H17.7558C18.4404 4.09668 18.9972 4.65352 18.9972 5.33809V6.85938L15.0667 8.82451V6.57959H10.913ZM22.4185 14.6065H19.598C17.227 14.6065 15.2768 12.7757 15.0837 10.4537L19.9024 8.04443H22.4185V14.6065ZM30.314 9.36728C30.3131 9.40488 30.3112 9.44219 30.3112 9.47998C30.3112 9.51777 30.3131 9.55508 30.314 9.59268V11.3912C30.314 13.1642 28.8716 14.6065 27.0987 14.6065H23.8833V8.04443H27.8311V2.70625C27.8311 2.02168 28.3879 1.46484 29.0725 1.46484C29.7571 1.46484 30.314 2.02168 30.314 2.70625V9.36728ZM34.9914 12.6953C33.2562 12.6953 31.8386 11.3137 31.7789 9.59277V9.36719C31.8386 7.64639 33.2562 6.26465 34.9914 6.26465C36.7643 6.26465 38.2067 7.70703 38.2067 9.47998C38.2067 11.2529 36.7643 12.6953 34.9914 12.6953Z" fill="#BA9166"/>
<path d="M16.7368 42.9851V36.2919C16.7368 35.0488 16.387 33.8354 15.7253 32.7831L10.9519 25.1911C10.4061 24.2455 9.477 23.5969 8.40063 23.4104C8.14087 23.3655 7.88013 23.3495 7.62222 23.36V12.4675C7.62222 10.6276 6.12544 9.13086 4.2856 9.13086C2.44575 9.13086 0.948975 10.6276 0.948975 12.4675V31.6867L4.85522 41.257V42.9851H2.25103V50H3.71587V44.4499H17.876V50H19.3409V42.9851H16.7368ZM15.272 42.9851H15.2719H6.32007V40.9695L2.41382 31.3992V12.4675C2.41382 11.4354 3.25347 10.5957 4.2856 10.5957C5.31772 10.5957 6.15737 11.4354 6.15737 12.4675V23.7328C5.88354 23.8676 5.62407 24.0363 5.38667 24.2398C4.04048 25.3937 3.71187 27.3427 4.60522 28.8742L10.1789 37.6013L11.4134 36.8128L5.86372 28.1242C5.3356 27.2061 5.53481 26.0422 6.33999 25.352C6.84077 24.9228 7.50073 24.7413 8.15064 24.8536C8.80054 24.9661 9.36099 25.3592 9.68823 25.9318L14.4854 33.5628C15 34.3813 15.272 35.3249 15.272 36.2918V42.9851Z" fill="#BA9166"/>
<path d="M50.8842 31.6867V12.4675C50.8842 10.6276 49.3874 9.13086 47.5476 9.13086C45.7077 9.13086 44.2109 10.6276 44.2109 12.4675V23.3598C43.9531 23.3494 43.6924 23.3654 43.4325 23.4104C42.3561 23.5969 41.4271 24.2456 40.8813 25.1911L36.1077 32.7831C35.4461 33.8355 35.0964 35.0488 35.0964 36.2919V42.9851H32.4922V50H33.957V44.4499H48.1172V50H49.582V42.9851H46.9779V41.257L50.8842 31.6867ZM45.5131 40.9695V42.9851H36.5612V36.2919C36.5612 35.3251 36.8332 34.3814 37.3479 33.5629L42.1293 25.9585L42.1451 25.932C42.4724 25.3594 43.0327 24.9664 43.6826 24.8538C44.3324 24.7415 44.9925 24.9229 45.4933 25.3521C46.2985 26.0424 46.4977 27.2062 45.9695 28.1244L40.4199 36.813L41.6544 37.6015L47.2126 28.8996L47.228 28.8744C48.1214 27.3429 47.7929 25.3938 46.4466 24.24C46.2092 24.0365 45.9497 23.8677 45.6758 23.7329V12.4675C45.6758 11.4354 46.5155 10.5957 47.5476 10.5957C48.5796 10.5957 49.4193 11.4354 49.4193 12.4675V31.3992L45.5131 40.9695Z" fill="#BA9166"/>
<path d="M26.6001 19.1406H25.1353V31.8359H26.6001V19.1406Z" fill="#BA9166"/>
<path d="M26.6001 36.2305H25.1353V37.6953H26.6001V36.2305Z" fill="#BA9166"/>
<path d="M26.6001 39.1602H25.1353V40.5273H26.6001V39.1602Z" fill="#BA9166"/>
<path d="M26.6001 33.3008H25.1353V34.7656H26.6001V33.3008Z" fill="#BA9166"/>
<path d="M33.2896 29.9805H31.8247V31.3477H33.2896V29.9805Z" fill="#BA9166"/>
<path d="M33.2896 19.1406H31.8247V28.5156H33.2896V19.1406Z" fill="#BA9166"/>
<path d="M19.9106 29.9805H18.4458V31.3477H19.9106V29.9805Z" fill="#BA9166"/>
<path d="M19.9106 19.1406H18.4458V28.5156H19.9106V19.1406Z" fill="#BA9166"/>
</g>
<defs>
<clipPath id="clip0">
<rect width="50" height="50" fill="white" transform="translate(0.916504)"/>
</clipPath>
</defs>
</svg>
