<svg width="51" height="48" viewBox="0 0 51 48" fill="none" xmlns="http://www.w3.org/2000/svg">
<path d="M49.8727 26.6405L46.5149 23.2826C46.1336 22.9016 45.5154 22.9014 45.1339 23.2826C44.7525 23.664 44.7525 24.2823 45.1339 24.6637L48.4917 28.0216C49.1237 28.6536 49.1237 29.6819 48.4927 30.3129C47.86 30.9437 46.8308 30.9435 46.1995 30.314L33.9187 18.0304L36.2505 15.7801L38.9305 18.4601C39.1212 18.6508 39.3711 18.7462 39.621 18.7462C39.8709 18.7462 40.1208 18.6508 40.3115 18.4601C40.6929 18.0788 40.6929 17.4604 40.3115 17.0791L37.656 14.4236L37.8434 14.2428C41.1029 11.0998 41.1961 5.88945 38.051 2.62753C36.5324 1.0541 34.4845 0.166401 32.2846 0.127827C30.0849 0.090327 28.0069 0.904389 26.4344 2.42236L25.9159 2.92167L25.3983 2.42314C23.825 0.904487 21.75 0.0915966 19.5486 0.127925C17.3495 0.166499 15.3021 1.05419 13.7835 2.62763C12.265 4.20097 11.4504 6.279 11.4897 8.4788C11.5291 10.6785 12.4174 12.7255 13.9906 14.2425L14.177 14.4224L1.95809 26.6415C0.56786 28.0356 0.56952 30.3025 1.96181 31.695C2.65731 32.3905 3.57147 32.7383 4.48622 32.7383C5.09813 32.7383 5.70995 32.5817 6.25702 32.2704V45.031C6.25702 46.5983 7.53202 47.8734 9.0993 47.8734H42.7323C44.2995 47.8734 45.5746 46.5984 45.5746 45.031V32.2704C46.1213 32.5813 46.7329 32.7377 47.3451 32.7377C48.2602 32.7377 49.1757 32.3901 49.8726 31.695C50.5457 31.022 50.9164 30.1243 50.9164 29.1678C50.9165 28.2112 50.5458 27.3138 49.8727 26.6405ZM13.4425 8.44365C13.4124 6.76562 14.0327 5.18163 15.1888 3.98378C16.345 2.78593 17.9055 2.11005 19.5828 2.08056C19.621 2.07988 19.6587 2.07958 19.6968 2.07958C21.3317 2.07958 22.8709 2.69814 24.0427 3.8291L25.2385 4.98076C25.2386 4.98085 25.2388 4.98095 25.2389 4.98105L26.3728 6.07636L23.3748 8.96992C23.1847 9.15341 23.0769 9.40615 23.0764 9.6704C23.0758 9.93466 23.1823 10.1879 23.3716 10.3722L26.3483 13.2709L23.3719 16.1672C22.9853 16.5433 22.9768 17.1615 23.353 17.548C23.5444 17.7448 23.7985 17.8435 24.053 17.8435C24.2985 17.8435 24.5441 17.7517 24.7339 17.5669L28.4294 13.971C28.6183 13.7872 28.7248 13.5349 28.7249 13.2713C28.725 13.0077 28.6184 12.7554 28.4297 12.5715L25.4559 9.67558L28.457 6.77919C28.6476 6.59521 28.7554 6.34169 28.7555 6.07675C28.7556 5.81181 28.6478 5.5583 28.4573 5.37421L27.3226 4.27831L27.7899 3.82832C28.9881 2.67187 30.5695 2.05048 32.2504 2.08056C33.9286 2.11005 35.4895 2.78583 36.6455 3.98349C39.0428 6.46972 38.9722 10.4413 36.4876 12.8371L25.9159 23.0394L15.3467 12.8368C14.1488 11.6817 13.4724 10.1216 13.4425 8.44365ZM3.34286 30.314C2.71093 29.682 2.71014 28.6534 3.34013 28.0217L15.5824 15.779L17.9151 18.0309L5.63329 30.3131C5.00057 30.9438 3.97313 30.9443 3.34286 30.314ZM18.2149 34.2163C17.0072 34.2163 16.0247 33.2349 16.0247 32.0288C16.0247 30.821 17.0072 29.8385 18.2149 29.8385C19.4211 29.8385 20.4023 30.821 20.4023 32.0288C20.4023 33.2349 19.4211 34.2163 18.2149 34.2163ZM15.7473 35.3527C16.437 35.8654 17.2911 36.1694 18.2149 36.1694C19.1384 36.1694 19.9921 35.8653 20.6814 35.3523C21.6129 35.8567 22.2044 36.5527 22.2044 37.9058V45.9204H14.2225V37.9058C14.2225 36.5536 14.8146 35.8575 15.7473 35.3527ZM33.6196 34.2163C32.4119 34.2163 31.4294 33.2349 31.4294 32.0288C31.4294 30.821 32.4119 29.8385 33.6196 29.8385C34.8258 29.8385 35.8071 30.821 35.8071 32.0288C35.8071 33.2349 34.8258 34.2163 33.6196 34.2163ZM31.152 35.3527C31.8419 35.8655 32.6958 36.1694 33.6196 36.1694C34.5432 36.1694 35.3969 35.8653 36.0863 35.3522C37.0194 35.8571 37.6119 36.5532 37.6119 37.9058V45.9204H29.6273V37.9058C29.6273 36.5536 30.2194 35.8575 31.152 35.3527ZM42.7323 45.9203H39.5649V37.9057C39.5649 35.705 38.4825 34.5269 37.3493 33.8261C37.6125 33.2821 37.7601 32.6724 37.7601 32.0287C37.7601 29.744 35.9027 27.8852 33.6196 27.8852C31.3349 27.8852 29.4763 29.744 29.4763 32.0287C29.4763 32.6728 29.6243 33.283 29.888 33.8272C28.7555 34.5282 27.6743 35.7062 27.6743 37.9057V45.9203H24.1575V37.9057C24.1575 35.7047 23.0765 34.5267 21.9444 33.8262C22.2076 33.2822 22.3554 32.6724 22.3554 32.0287C22.3554 29.744 20.4979 27.8852 18.2149 27.8852C15.9303 27.8852 14.0716 29.744 14.0716 32.0287C14.0716 32.6728 14.2196 33.283 14.4833 33.8271C13.3507 34.5281 12.2694 35.7061 12.2694 37.9056V45.9202H9.0993C8.60907 45.9202 8.21014 45.5213 8.21014 45.0309V30.4982L19.3207 19.3875L25.2377 25.0992C25.4268 25.2819 25.6714 25.3732 25.9159 25.3732C26.1604 25.3732 26.4049 25.2819 26.594 25.0993L32.5132 19.3869L43.6216 30.4979V45.031C43.6216 45.5215 43.2226 45.9203 42.7323 45.9203Z" fill="#BA9166"/>
</svg>
