<svg width="51" height="50" viewBox="0 0 51 50" fill="none" xmlns="http://www.w3.org/2000/svg">
<g clip-path="url(#clip0)">
<path d="M49.7783 28.5423V12.3787C49.7783 7.64197 45.2885 3.78875 39.7705 3.78875H33.3658C31.6146 3.78875 29.9681 4.17785 28.5349 4.85915C26.9243 1.98669 23.5031 0 19.5522 0H12.3034C6.80894 0 2.33866 3.84254 2.33866 8.5655V14.2105C1.43511 14.7056 0.834961 15.5674 0.834961 16.5474V18.3265C0.834961 19.8589 2.3014 21.1052 4.10406 21.1052H4.55961C5.23472 24.3499 7.78435 27.05 11.2176 28.3622H9.31555C5.13625 28.3622 1.73585 31.285 1.73585 34.8773V48.7796C1.73585 49.4525 2.37281 49.9999 3.15527 49.9999H48.3505C49.1152 49.9999 49.7375 49.4651 49.7375 48.8082V40.853C49.7375 40.4483 49.356 40.1206 48.8859 40.1206C48.4152 40.1206 48.0342 40.4483 48.0342 40.853V48.5351H31.9921V45.5989H43.2259C43.9946 45.5989 44.6201 45.061 44.6201 44.3999V37.1898C44.6201 36.7854 44.2386 36.4574 43.7684 36.4574C43.2978 36.4574 42.9168 36.7854 42.9168 37.1898V44.1341H33.5033L36.3236 37.7486C36.7356 36.8144 36.9352 35.8554 36.9432 34.9101C39.0941 34.7526 40.8009 33.2523 40.8985 31.3999H42.6737C45.6292 31.3999 48.0342 33.4628 48.0342 35.9988V37.3046C48.0342 37.7094 48.4152 38.037 48.8859 38.037C49.356 38.037 49.7375 37.7094 49.7375 37.3046V35.9988C49.7375 33.2973 47.6683 31.0039 44.8192 30.2223H47.8226C48.9009 30.2223 49.7783 29.4685 49.7783 28.5423ZM33.3658 5.25359H39.7705C44.3495 5.25359 48.0746 8.44954 48.0746 12.3787V28.5423C48.0746 28.6609 47.9615 28.7574 47.8222 28.7574H43.3807C45.7689 27.0824 47.2939 24.5475 47.2939 21.7155V12.4256C47.2939 11.7653 46.6662 11.2282 45.8944 11.2282H40.3529C39.92 11.2282 39.5239 11.4319 39.319 11.7595C37.9998 13.8733 35.4448 15.1863 32.6521 15.1863H30.5997C30.3372 14.7911 29.9646 14.4558 29.5165 14.2105V8.5655C29.5165 7.76175 29.387 6.98355 29.1448 6.24541C30.3828 5.61599 31.8258 5.25359 33.3658 5.25359ZM13.0069 28.8993C13.9402 29.1072 14.9187 29.2182 15.9278 29.2182C16.9365 29.2182 17.9155 29.1072 18.8487 28.8989V29.7069C18.8487 31.0737 17.5384 32.1857 15.9278 32.1857C14.3168 32.1857 13.0069 31.0737 13.0069 29.7069V28.8993ZM20.552 28.3939C21.5727 28.0124 22.5166 27.5085 23.3585 26.9042V27.4356C22.3108 27.8633 21.358 28.4515 20.552 29.1702V28.3939ZM25.0618 25.3921C25.477 24.9347 25.8465 24.4457 26.1636 23.9295C26.4515 24.9073 26.9252 25.8224 27.5515 26.6468C27.5072 26.6464 27.4628 26.6445 27.4189 26.6445C26.6129 26.6445 25.8221 26.7349 25.0618 26.9039V25.3921ZM27.4735 19.3836V15.2336H27.7516C28.6148 15.2336 29.3174 15.823 29.3174 16.547V18.3265C29.3174 19.0509 28.6148 19.6403 27.7516 19.6403H27.4695C27.4721 19.5549 27.4735 19.4694 27.4735 19.3836ZM30.7998 27.18C30.5332 27.0931 30.264 27.0168 29.9921 26.9508C28.4768 25.5802 27.5458 23.7388 27.5458 21.7155V21.1052H27.7516C29.1045 21.1052 30.2684 20.4029 30.7643 19.4042V20.4189C30.7643 20.8232 31.1458 21.1513 31.616 21.1513C32.0866 21.1513 32.4676 20.8232 32.4676 20.4189V18.5474C32.4676 18.1427 32.0866 17.815 31.616 17.815C31.384 17.815 31.1737 17.8951 31.0202 18.0244V16.6515H32.6526C35.9665 16.6515 39.0071 15.1416 40.6634 12.693H45.5906V21.7155C45.5906 25.9384 41.543 29.3743 36.568 29.3743C35.7571 29.3743 34.9716 29.2816 34.2233 29.1103C33.2864 28.2848 32.134 27.6161 30.7998 27.18ZM4.10406 19.6403C3.24043 19.6403 2.53826 19.0509 2.53826 18.3265V16.547C2.53826 15.823 3.24043 15.2336 4.10406 15.2336H4.38218V19.3836C4.38218 19.4694 4.38351 19.5549 4.38617 19.6403H4.10406ZM6.08548 19.3836V13.8282H8.44748C8.16671 13.9427 7.8948 14.08 7.6362 14.2418C7.25562 14.4794 7.17134 14.9376 7.44768 15.2649C7.61446 15.4621 7.87395 15.5666 8.13743 15.5666C8.31087 15.5666 8.48607 15.5212 8.63733 15.4266C9.80924 14.6949 11.3835 14.6949 12.5554 15.4266C12.936 15.6646 13.4682 15.5918 13.745 15.2649C14.0214 14.9376 13.9366 14.4794 13.5565 14.2418C13.2669 14.0609 12.9612 13.9103 12.6445 13.7886C15.8431 13.5246 18.7063 11.9507 20.3227 9.53482H20.9916C21.4618 9.53482 21.8433 9.20675 21.8433 8.8024C21.8433 8.39766 21.4618 8.06998 20.9916 8.06998H20.0268C19.5842 8.06998 19.1792 8.27788 18.9694 8.61395C17.5278 10.9268 14.7373 12.3634 11.6869 12.3634H5.58159C4.92023 12.3634 4.38218 12.8261 4.38218 13.3949V13.7687H4.10406C4.08321 13.7687 4.06237 13.7695 4.04196 13.7699V8.5655C4.04196 4.65011 7.74798 1.46484 12.3034 1.46484H19.5522C24.1077 1.46484 27.8137 4.65011 27.8137 8.5655V13.7703C27.7928 13.7699 27.7724 13.7687 27.7516 13.7687H27.4735V9.30708C27.4735 8.62501 26.8254 8.06998 26.0288 8.06998H25.0795C24.6093 8.06998 24.2279 8.39804 24.2279 8.8024C24.2279 9.20714 24.6093 9.53482 25.0795 9.53482H25.7702V19.3836C25.7702 23.999 21.3549 27.7534 15.9278 27.7534C10.5008 27.7534 6.08548 23.9986 6.08548 19.3836ZM20.3045 48.5351H3.43915V34.8773C3.43915 32.0926 6.07528 29.8267 9.31555 29.8267H11.3072C11.3817 31.9457 13.4248 33.6505 15.9278 33.6505C16.642 33.6505 17.318 33.5113 17.9221 33.2633L13.7477 42.7158C13.572 43.1136 13.4345 43.5195 13.3334 43.9296H8.79436V42.1218C8.79436 41.7171 8.41289 41.3894 7.9427 41.3894C7.47208 41.3894 7.09105 41.7171 7.09105 42.1218V44.1741C7.09105 44.847 7.72757 45.3944 8.51003 45.3944H20.3045V48.5351ZM25.2059 48.5351H22.0078V45.3944H22.8293V46.9649C22.8293 47.3693 23.2103 47.6974 23.681 47.6974H25.2059V48.5351ZM30.2888 48.5351H26.9093V47.7992H28.7274C29.1981 47.7992 29.5791 47.4715 29.5791 47.0668V45.5989H30.2888V48.5351ZM34.7307 37.2287L31.6812 44.1341H29.1723C28.4578 44.1341 27.8758 44.6342 27.8758 45.2491V46.3344H26.5535C26.3876 46.2691 26.2035 46.2325 26.0093 46.2325H24.5326V45.0625C24.5326 44.4377 23.9418 43.9296 23.2152 43.9296H15.0833C15.1538 43.6957 15.239 43.4642 15.3401 43.2357L20.1031 32.4504C21.2502 29.8538 24.1902 28.1093 27.4189 28.1093C28.3664 28.1093 29.3005 28.2573 30.1952 28.5495C34.2277 29.8671 36.2623 33.7604 34.7307 37.2287ZM36.8017 33.4506C36.6136 32.5206 36.2419 31.6257 35.7048 30.8074C35.9895 30.8273 36.2774 30.8391 36.5684 30.8391C37.4759 30.8391 38.3578 30.7422 39.2001 30.5606V31.2324C39.2001 32.394 38.144 33.3503 36.8017 33.4506Z" fill="#BA9166"/>
<path d="M36.207 22.8096H37.4969C37.9671 22.8096 38.3486 22.4819 38.3486 22.0771C38.3486 21.6728 37.9671 21.3447 37.4969 21.3447H36.4909V19.7212C36.4909 19.3168 36.1094 18.9888 35.6393 18.9888C35.1686 18.9888 34.7876 19.3168 34.7876 19.7212V21.5889C34.7876 22.2622 35.4241 22.8096 36.207 22.8096Z" fill="#BA9166"/>
<path d="M40.7723 24.4922C40.4414 24.2046 39.9024 24.2015 39.5675 24.4857C37.9135 25.8918 35.2223 25.8918 33.5683 24.4857C33.2338 24.2015 32.6944 24.2046 32.364 24.4922C32.0335 24.7795 32.0366 25.2433 32.3711 25.5279C33.5283 26.5113 35.048 27.0031 36.5681 27.0031C38.0878 27.0031 39.6079 26.511 40.7652 25.5279C41.0996 25.2433 41.1027 24.7799 40.7723 24.4922Z" fill="#BA9166"/>
<path d="M41.5201 17.8149C41.0499 17.8149 40.6685 18.1426 40.6685 18.5474V20.4189C40.6685 20.8232 41.0499 21.1513 41.5201 21.1513C41.9903 21.1513 42.3718 20.8232 42.3718 20.4189V18.5474C42.3718 18.1426 41.9903 17.8149 41.5201 17.8149Z" fill="#BA9166"/>
<path d="M40.1026 16.7389H43.2089C43.6791 16.7389 44.0606 16.4112 44.0606 16.0065C44.0606 15.6021 43.6791 15.274 43.2089 15.274H40.1026C39.6324 15.274 39.251 15.6021 39.251 16.0065C39.251 16.4112 39.6324 16.7389 40.1026 16.7389Z" fill="#BA9166"/>
<path d="M15.4895 21.4665H16.9337C17.4039 21.4665 17.7854 21.1388 17.7854 20.7341C17.7854 20.3297 17.4039 20.0016 16.9337 20.0016H15.7734V17.434C15.7734 17.0296 15.3919 16.7015 14.9217 16.7015C14.4515 16.7015 14.0701 17.0296 14.0701 17.434V20.2458C14.0701 20.9191 14.7066 21.4665 15.4895 21.4665Z" fill="#BA9166"/>
<path d="M20.4236 23.4744C20.7581 23.1898 20.7608 22.7263 20.4299 22.4387C20.099 22.1511 19.56 22.1488 19.2256 22.4334C17.4069 23.9814 14.4483 23.9814 12.6297 22.4334C12.2952 22.1488 11.7563 22.1511 11.425 22.4387C11.0941 22.7263 11.0972 23.1898 11.4312 23.4744C12.6709 24.5299 14.2988 25.0571 15.9276 25.0571C17.5555 25.0571 19.1843 24.5295 20.4236 23.4744Z" fill="#BA9166"/>
<path d="M11.4755 17.7013V16.2174C11.4755 15.8127 11.0941 15.485 10.6239 15.485C10.1537 15.485 9.77222 15.8127 9.77222 16.2174V17.7013C9.77222 18.1057 10.1537 18.4337 10.6239 18.4337C11.0941 18.4337 11.4755 18.1057 11.4755 17.7013Z" fill="#BA9166"/>
<path d="M21.3504 15.4846C20.8802 15.4846 20.4988 15.8127 20.4988 16.217V17.7013C20.4988 18.1057 20.8802 18.4338 21.3504 18.4338C21.8211 18.4338 22.2021 18.1057 22.2021 17.7013V16.217C22.2021 15.8127 21.8211 15.4846 21.3504 15.4846Z" fill="#BA9166"/>
<path d="M18.919 15.5667C19.0925 15.5667 19.2677 15.5213 19.4189 15.4267C20.5908 14.695 22.1651 14.695 23.337 15.4267C23.7171 15.6647 24.2499 15.5918 24.5266 15.2649C24.803 14.9376 24.7187 14.4795 24.3381 14.2418C22.5674 13.1355 20.1885 13.1355 18.4178 14.2418C18.0372 14.4795 17.9529 14.9376 18.2293 15.2649C18.3961 15.4621 18.656 15.5667 18.919 15.5667Z" fill="#BA9166"/>
<path d="M29.6451 29.7943C28.8706 29.541 28.0606 29.4128 27.2387 29.4128C24.4402 29.4128 21.8923 30.925 20.8983 33.1753C20.2551 34.6313 20.3101 36.216 21.0527 37.6369C21.7952 39.0575 23.1366 40.1447 24.8297 40.6975C25.6046 40.9508 26.4145 41.0793 27.2369 41.0793C30.035 41.0793 32.5828 39.5672 33.5764 37.3169C34.904 34.3105 33.1404 30.9357 29.6451 29.7943ZM31.9845 36.7966C31.2401 38.4819 29.3323 39.6141 27.2369 39.6141C26.6221 39.6141 26.0158 39.518 25.4347 39.328C24.167 38.9141 23.1623 38.1001 22.6061 37.0361C22.0503 35.9722 22.009 34.7858 22.4907 33.6952C23.235 32.0099 25.1433 30.8777 27.2387 30.8777C27.8535 30.8777 28.4594 30.9738 29.0405 31.1634C31.6575 32.0183 32.9785 34.5455 31.9845 36.7966Z" fill="#BA9166"/>
<path d="M25.1733 34.1797C25.2727 34.2121 25.3752 34.2278 25.4758 34.2278C25.8192 34.2278 26.1425 34.0477 26.272 33.7551L26.4703 33.3069C26.6371 32.9289 26.4162 32.5058 25.9766 32.362C25.5371 32.2182 25.0451 32.4082 24.8779 32.7862L24.6796 33.2348C24.5124 33.6128 24.7333 34.0359 25.1733 34.1797Z" fill="#BA9166"/>
<path d="M30.4062 33.8088C29.967 33.6654 29.4747 33.8554 29.3079 34.2338L29.1101 34.682C28.9433 35.0604 29.1642 35.4835 29.6038 35.6269C29.7036 35.6593 29.8056 35.6746 29.9058 35.6746C30.2496 35.6746 30.5734 35.4945 30.7025 35.202L30.9003 34.7537C31.0671 34.3753 30.8462 33.9526 30.4062 33.8088Z" fill="#BA9166"/>
<path d="M28.8178 36.1027C28.3778 35.9585 27.8858 36.1492 27.7191 36.5273C27.5274 36.9614 26.9606 37.1803 26.4562 37.0155C26.2118 36.9358 26.018 36.7787 25.9106 36.5734C25.8037 36.3682 25.7958 36.1397 25.8885 35.9295C26.0557 35.5515 25.8348 35.1284 25.3952 34.9846C24.9556 34.8412 24.4637 35.0311 24.2965 35.4092C24.0419 35.9848 24.0636 36.6116 24.3573 37.1739C24.6509 37.7361 25.1819 38.1661 25.8512 38.385C26.1639 38.4869 26.4846 38.5353 26.8009 38.5353C27.8832 38.5353 28.9047 37.9677 29.3115 37.0476C29.4783 36.6692 29.2574 36.2465 28.8178 36.1027Z" fill="#BA9166"/>
<path d="M7.94247 39.4043C8.41266 39.4043 8.79413 39.0762 8.79413 38.6719V36.597C8.79413 36.1923 8.41266 35.8646 7.94247 35.8646C7.47185 35.8646 7.09082 36.1923 7.09082 36.597V38.6719C7.09082 39.0762 7.47185 39.4043 7.94247 39.4043Z" fill="#BA9166"/>
</g>
<defs>
<clipPath id="clip0">
<rect width="50" height="50" fill="white" transform="translate(0.75)"/>
</clipPath>
</defs>
</svg>
