<svg width="50" height="50" viewBox="0 0 50 50" fill="none" xmlns="http://www.w3.org/2000/svg">
<g clip-path="url(#clip0)">
<path d="M33.2448 40.7914C32.6739 40.7962 32.5103 40.7694 32.0805 40.4883C31.7419 40.2668 31.288 40.3617 31.0666 40.7003C30.8451 41.0388 30.9401 41.4928 31.2786 41.7141C31.7495 42.0222 32.1055 42.1607 32.5173 42.2187V42.3917C32.5173 42.7961 32.8451 43.1241 33.2497 43.1241C33.6543 43.1241 33.9821 42.7961 33.9821 42.3917V42.1415C34.8852 41.8511 35.4628 41.0526 35.5953 40.2644C35.7761 39.1895 35.1937 38.2185 34.146 37.8482C33.6014 37.6557 33.0002 37.424 32.6703 37.1653C32.5991 37.1094 32.5686 36.9556 32.598 36.7996C32.6141 36.7147 32.6883 36.4312 32.9712 36.346C33.5604 36.1684 33.9419 36.4662 33.9835 36.5008C34.2945 36.7594 34.7562 36.717 35.0149 36.406C35.2735 36.0949 35.2311 35.6331 34.9201 35.3745C34.6869 35.1806 34.364 35.0058 33.9821 34.9077V34.7541C33.9821 34.3497 33.6543 34.0217 33.2497 34.0217C32.8451 34.0217 32.5173 34.3497 32.5173 34.7541V34.954C31.8196 35.1772 31.3001 35.777 31.1585 36.5281C31.0256 37.2337 31.2583 37.9193 31.7663 38.3177C32.2616 38.7062 32.9682 38.9853 33.6579 39.2291C34.1721 39.4109 34.1875 39.8034 34.1508 40.0213C34.0887 40.3899 33.7789 40.7879 33.2448 40.7914Z" fill="#BA9166"/>
<path d="M26.9876 41.214C27.3752 41.0982 27.5955 40.6901 27.4796 40.3026C27.3127 39.7439 27.228 39.162 27.228 38.5729C27.228 35.2323 29.9463 32.5145 33.2875 32.5145C36.6282 32.5145 39.346 35.2323 39.346 38.5729C39.346 41.9141 36.6282 44.6324 33.2875 44.6324C31.5481 44.6324 29.8908 43.8836 28.7405 42.5779C28.4732 42.2745 28.0102 42.2451 27.7068 42.5126C27.4033 42.78 27.3741 43.2429 27.6415 43.5463C29.0697 45.1674 31.1277 46.0972 33.2875 46.0972C37.4359 46.0972 40.8108 42.7219 40.8108 38.5729C40.8108 34.4246 37.4359 31.0497 33.2875 31.0497C29.1386 31.0497 25.7632 34.4246 25.7632 38.5729C25.7632 39.3042 25.8685 40.0273 26.0762 40.722C26.192 41.1095 26.6001 41.3296 26.9876 41.214Z" fill="#BA9166"/>
<path d="M47.1192 28.1384H19.4555C17.8671 28.1384 16.5747 29.4308 16.5747 31.0192V46.1263C16.5747 47.7148 17.8671 49.0071 19.4555 49.0071H47.1192C48.7077 49.0071 50 47.7147 50 46.1263V31.0192C50 29.4308 48.7076 28.1384 47.1192 28.1384ZM48.5352 31.0193V34.2322C46.136 33.9061 44.2326 32.0026 43.9063 29.6033H47.1192C47.8999 29.6032 48.5352 30.2385 48.5352 31.0193ZM18.0395 35.7085C21.2476 35.3672 23.8034 32.8114 24.1446 29.6032H42.4301C42.7713 32.8114 45.3271 35.3672 48.5352 35.7085V41.4372C45.3271 41.7785 42.7713 44.3343 42.4301 47.5425H24.1446C23.8033 44.3343 21.2475 41.7785 18.0395 41.4372V35.7085ZM19.4555 29.6032H22.6684C22.3422 32.0025 20.4388 33.906 18.0395 34.2321V31.0193C18.0395 30.2385 18.6747 29.6032 19.4555 29.6032ZM18.0395 46.1263V42.9134C20.4387 43.2395 22.3422 45.143 22.6684 47.5423H19.4555C18.6747 47.5424 18.0395 46.9071 18.0395 46.1263ZM47.1192 47.5424H43.9063C44.2325 45.1431 46.1359 43.2396 48.5352 42.9135V46.1264C48.5352 46.9071 47.8999 47.5424 47.1192 47.5424Z" fill="#BA9166"/>
<path d="M33.1938 11.8332C33.9915 12.1704 34.7202 12.6139 35.371 13.1575C34.9889 13.3902 34.6746 13.7305 34.4662 14.1528C34.0802 14.9353 34.1391 15.8354 34.6236 16.5603L38.5191 22.3932C38.9732 23.0731 39.7123 23.4665 40.52 23.4665C40.5743 23.4665 40.6288 23.4647 40.6836 23.4611C41.5542 23.4042 42.3043 22.9032 42.6901 22.1211L45.7943 15.8315C46.1809 15.0494 46.1224 14.1491 45.6381 13.4233C45.1536 12.6973 44.3448 12.2976 43.4737 12.3545L42.9426 12.3892C42.6511 11.8716 42.3278 11.3689 41.9786 10.89C41.7401 10.5632 41.2821 10.4916 40.9553 10.7299C40.6285 10.9683 40.5569 11.4264 40.7951 11.7532C41.1959 12.3027 41.5587 12.887 41.8733 13.4896C42.0075 13.7467 42.2797 13.9005 42.5705 13.8815L43.5693 13.8161C44.0626 13.7832 44.3283 14.0992 44.4198 14.2362C44.5112 14.3733 44.7001 14.7396 44.4811 15.1829L41.3766 21.473C41.1581 21.9159 40.7525 21.9887 40.5882 21.9994C40.4243 22.0103 40.0121 21.9907 39.7374 21.5796L35.8417 15.7466C35.5673 15.3361 35.7072 14.9484 35.7799 14.8008C35.8528 14.6531 36.0754 14.3062 36.5689 14.274L36.8512 14.2555C37.1309 14.2371 37.3757 14.0606 37.4815 13.8009C37.5872 13.5412 37.5355 13.244 37.3482 13.0353C36.3528 11.9266 35.1469 11.0682 33.7641 10.4838C33.3351 10.3026 33.0026 9.96515 32.8275 9.53362C32.6525 9.10209 32.6559 8.62837 32.8373 8.19947C33.2113 7.31394 34.2359 6.89765 35.1215 7.27166C36.5316 7.86794 37.8152 8.68344 38.9364 9.69543C39.2366 9.96623 39.6997 9.94279 39.9709 9.64241C40.2418 9.34212 40.2181 8.87905 39.9179 8.60796C38.6749 7.48621 37.2531 6.58261 35.6918 5.92238C34.0623 5.23382 32.1764 5.99972 31.488 7.62917C31.1545 8.41831 31.1481 9.29017 31.4702 10.0842C31.7922 10.8786 32.4044 11.4997 33.1938 11.8332Z" fill="#BA9166"/>
<path d="M12.8539 41.6938C12.0563 41.3567 11.3278 40.9132 10.677 40.3697C11.059 40.1369 11.3734 39.7965 11.5818 39.3744C11.9678 38.592 11.909 37.6917 11.4244 36.9661L7.52847 31.1333C7.04401 30.4078 6.23426 30.0085 5.36436 30.0654C4.49377 30.1223 3.7435 30.6232 3.35737 31.4056L0.252954 37.6957C-0.13317 38.4781 -0.0744798 39.3784 0.410079 40.1041C0.894638 40.8297 1.7037 41.2287 2.57448 41.1722L3.10494 41.1375C4.73078 44.0221 7.28941 46.3082 10.3558 47.6043C10.7578 47.7742 11.181 47.8591 11.6046 47.8591C12.013 47.8591 12.4216 47.7801 12.8113 47.6219C13.6055 47.2997 14.2266 46.6875 14.5601 45.8982C15.2488 44.2685 14.4835 42.3825 12.8539 41.6938ZM13.2109 45.3278C13.0296 45.7568 12.6921 46.0895 12.2606 46.2646C11.829 46.4397 11.3551 46.4362 10.9261 46.255C8.02396 45.0284 5.62617 42.8203 4.17435 40.0374C4.04759 39.7943 3.79662 39.6437 3.52524 39.6437C3.50932 39.6437 3.49331 39.6442 3.47729 39.6453L2.47907 39.7105C1.98514 39.7421 1.71981 39.4277 1.62841 39.2907C1.53691 39.1538 1.34785 38.7874 1.56669 38.3441L4.67121 32.054C4.88995 31.6108 5.29571 31.538 5.46006 31.5273C5.62441 31.5168 6.03622 31.536 6.31062 31.947L10.2065 37.7799C10.4811 38.1909 10.3413 38.5788 10.2684 38.7264C10.1956 38.8741 9.97284 39.2211 9.47959 39.2534L9.19747 39.2718C8.91759 39.29 8.67268 39.4665 8.56692 39.7261C8.46106 39.9859 8.51282 40.2833 8.70022 40.4919C9.6956 41.6004 10.9014 42.4588 12.2839 43.0431C13.1692 43.4173 13.5852 44.4422 13.2109 45.3278Z" fill="#BA9166"/>
<path d="M6.41389 18.0736H6.7509C7.12657 23.1841 11.405 27.2275 16.6103 27.2275C21.8151 27.2275 26.093 23.1841 26.4687 18.0736H26.8058C27.6249 18.0736 28.3947 17.7548 28.9735 17.176C29.5523 16.5972 29.871 15.8274 29.871 15.0083C29.871 13.3181 28.4959 11.9431 26.8057 11.9431H26.0113C25.5356 10.4816 24.7187 9.14253 23.6006 8.02449C22.7439 7.16768 21.722 6.46799 20.6183 5.97688C20.6226 5.91351 20.6257 5.84974 20.6257 5.78519C20.6257 4.24704 19.3743 2.9957 17.8361 2.9957H17.538C17.3594 1.86223 16.3758 0.992626 15.1928 0.992626C14.5569 0.992626 13.9785 1.24399 13.5519 1.65247C13.5505 1.6512 13.5494 1.65003 13.548 1.64876C13.074 1.19653 12.4514 0.964502 11.7956 0.995263C10.5282 1.05493 9.5353 2.11701 9.5353 3.41308C9.5353 4.77037 10.0627 6.00628 10.9224 6.92862C9.16568 8.1658 7.87411 9.93441 7.21583 11.9431H6.41389C5.59487 11.9431 4.82497 12.2618 4.24549 12.8414C3.66718 13.4213 3.34863 14.1909 3.34863 15.0083C3.34863 16.6985 4.7237 18.0736 6.41389 18.0736ZM26.8058 13.408C27.6883 13.408 28.4063 14.1259 28.4063 15.0084C28.4063 15.4362 28.2398 15.8383 27.9377 16.1403C27.6357 16.4425 27.2336 16.6088 26.8058 16.6088H26.4958V15.0149C26.4958 14.4711 26.4514 13.9342 26.366 13.4079H26.8058V13.408ZM11.8645 2.45851C11.8795 2.45783 11.8943 2.45744 11.9092 2.45744C12.1447 2.45744 12.3662 2.54571 12.537 2.7086C12.7187 2.88194 12.8188 3.11572 12.8188 3.36669C12.8188 3.77117 13.1467 4.0991 13.5512 4.0991C13.9557 4.0991 14.2836 3.77117 14.2836 3.36669C14.2836 2.86534 14.6915 2.45734 15.193 2.45734C15.6943 2.45734 16.1023 2.86524 16.1023 3.36669V3.72801C16.1023 4.13249 16.4303 4.46042 16.8347 4.46042H17.8363C18.5667 4.46042 19.1611 5.05464 19.1611 5.78519C19.1611 6.51564 18.5668 7.10987 17.8363 7.10987H14.6971C12.6587 7.10987 11.0003 5.45151 11.0003 3.41308C11.0001 2.90918 11.3879 2.48097 11.8645 2.45851ZM8.18866 15.0149C8.18866 12.1153 9.68774 9.423 12.1272 7.8867C12.8845 8.32351 13.7618 8.57477 14.697 8.57477H17.8362C18.7883 8.57477 19.6302 8.095 20.1337 7.36484C21.0316 7.78007 21.8629 8.35837 22.5649 9.06021C24.1552 10.6505 25.0309 12.7652 25.0309 15.0149V17.342C25.0309 21.9851 21.2534 25.7627 16.6103 25.7627C11.9666 25.7627 8.18866 21.9851 8.18866 17.342V15.0149ZM5.28189 13.8764C5.58403 13.5743 5.98597 13.4079 6.4138 13.4079H6.85617C6.76916 13.9343 6.72375 14.4714 6.72375 15.0149V16.6088H6.4138C5.5313 16.6088 4.81334 15.8908 4.81334 15.0083C4.81344 14.5815 4.98014 14.1791 5.28189 13.8764Z" fill="#BA9166"/>
<path d="M16.6097 19.516C18.0457 19.516 19.3957 18.9568 20.4111 17.9414C20.6971 17.6554 20.6971 17.1917 20.4111 16.9057C20.125 16.6197 19.6613 16.6197 19.3754 16.9057C18.6366 17.6444 17.6544 18.0512 16.6098 18.0512C15.5651 18.0512 14.5829 17.6444 13.8442 16.9057C13.5583 16.6196 13.0945 16.6197 12.8085 16.9057C12.5225 17.1917 12.5225 17.6555 12.8085 17.9414C13.8237 18.9568 15.1737 19.516 16.6097 19.516Z" fill="#BA9166"/>
<path d="M13.749 14.885C14.1535 14.885 14.4814 14.5571 14.4814 14.1526V12.3702C14.4814 11.9657 14.1535 11.6378 13.749 11.6378C13.3445 11.6378 13.0166 11.9657 13.0166 12.3702V14.1526C13.0166 14.5572 13.3445 14.885 13.749 14.885Z" fill="#BA9166"/>
<path d="M19.4702 14.885C19.8747 14.885 20.2026 14.5571 20.2026 14.1526V12.3702C20.2026 11.9657 19.8747 11.6378 19.4702 11.6378C19.0657 11.6378 18.7378 11.9657 18.7378 12.3702V14.1526C18.7378 14.5572 19.0657 14.885 19.4702 14.885Z" fill="#BA9166"/>
</g>
<defs>
<clipPath id="clip0">
<rect width="50" height="50" fill="white"/>
</clipPath>
</defs>
</svg>
