<svg width="20" height="20" viewBox="0 0 20 20" fill="none" xmlns="http://www.w3.org/2000/svg">
<path d="M17.0664 2.93188C15.1779 1.04338 12.6682 0.00244141 9.99794 0.00244141C7.32771 0.00244141 4.81794 1.04338 2.92944 2.93188C1.04094 4.82038 0 7.33015 0 10.0004C0 12.6706 1.04094 15.1804 2.92944 17.0689C4.81794 18.9574 7.32771 19.9983 9.99794 19.9983C11.5491 19.9983 12.9644 19.7103 14.0876 19.1713C15.1533 18.657 15.9268 17.9206 16.2683 17.1018C16.6756 16.1185 16.4452 15.094 15.6388 14.2876L15.61 14.2588C15.6223 14.2423 15.6388 14.23 15.6511 14.2176C16.2271 13.6128 16.2271 12.8187 15.6429 12.2345L14.2193 10.8109C13.9395 10.5229 13.6021 10.3666 13.2442 10.3666C12.8862 10.3666 12.5447 10.5188 12.2567 10.8068L11.5161 11.5474C11.4791 11.5268 11.4462 11.5104 11.4092 11.4939C11.3187 11.4486 11.2364 11.4075 11.1664 11.3622C10.4135 10.885 9.73051 10.2596 9.07632 9.45728C8.78832 9.09522 8.59083 8.78664 8.44271 8.48218C8.62785 8.30937 8.80066 8.13245 8.96935 7.95965C9.03929 7.88559 9.11335 7.81565 9.18741 7.74159C9.79222 7.13678 9.79222 6.35504 9.18741 5.75023L8.48385 5.04667C8.40156 4.96438 8.32339 4.88621 8.24522 4.80392C8.08887 4.64346 7.92841 4.47889 7.75561 4.31843C7.47583 4.04276 7.14256 3.89876 6.78873 3.89876C6.43489 3.89876 6.09751 4.04276 5.8095 4.31843C5.80539 4.32254 5.80539 4.32254 5.80128 4.32665L4.91668 5.21125C4.56285 5.56508 4.35713 6.00121 4.31598 6.50316C4.25427 7.28489 4.48056 8.00902 4.65748 8.48218C5.08126 9.62597 5.71487 10.6875 6.65707 11.8231C7.80086 13.189 9.17918 14.2711 10.755 15.0323C11.3598 15.3203 12.1703 15.6577 13.0837 15.7194C13.1413 15.7235 13.1989 15.7235 13.2565 15.7235C13.8943 15.7235 14.4332 15.4931 14.8529 15.0364C14.857 15.0323 14.8653 15.024 14.8694 15.0199C14.8817 15.0035 14.8982 14.987 14.9146 14.9706L14.9393 14.9952C15.466 15.5219 15.61 16.1226 15.3549 16.7356C14.8817 17.8588 13.0426 19.0109 9.99794 19.0109C5.02777 19.0109 0.987451 14.9706 0.987451 10.0004C0.987451 5.03021 5.02777 0.989892 9.99794 0.989892C14.9681 0.989892 19.0084 5.03021 19.0084 10.0004C19.0084 10.8191 18.8973 11.6256 18.6834 12.4032C18.6093 12.6665 18.7657 12.9381 19.029 13.0121C19.2923 13.0862 19.5639 12.9298 19.6379 12.6665C19.8766 11.8025 20 10.9055 20 10.0004C19.9959 7.33015 18.9549 4.82038 17.0664 2.93188ZM14.1206 14.3657C13.886 14.6167 13.6227 14.7278 13.2565 14.7278C13.2195 14.7278 13.1825 14.7278 13.1454 14.7237C12.4049 14.6743 11.7054 14.3822 11.1829 14.1312C9.73874 13.4318 8.47151 12.4402 7.41823 11.1812C6.55009 10.1362 5.96996 9.16928 5.58321 8.13245C5.35281 7.50707 5.26641 7.0298 5.29932 6.57722C5.32401 6.30978 5.42275 6.09172 5.61613 5.90246L6.50072 5.02198C6.57066 4.95615 6.67764 4.87798 6.79284 4.87798C6.90804 4.87798 7.00679 4.95204 7.0685 5.01787C7.07262 5.02198 7.07673 5.0261 7.08085 5.03021C7.23719 5.17422 7.38531 5.32645 7.54166 5.48691C7.62395 5.5692 7.70623 5.6556 7.78852 5.73789L8.49208 6.44144C8.71014 6.65951 8.71014 6.81997 8.49208 7.03803C8.41802 7.11209 8.34396 7.18615 8.2699 7.26021C8.05184 7.47827 7.85024 7.6881 7.62806 7.88559C7.61983 7.88971 7.61572 7.89793 7.60749 7.90616C7.29891 8.21474 7.40588 8.53566 7.4388 8.64264C7.44291 8.65498 7.44703 8.66321 7.45114 8.67555C7.6404 9.13225 7.90372 9.56014 8.30693 10.0703L8.31105 10.0744C9.03518 10.9673 9.79634 11.6585 10.6398 12.1933C10.7509 12.2633 10.862 12.3209 10.9689 12.3744C11.0595 12.4196 11.1417 12.4608 11.2117 12.506C11.224 12.5143 11.2405 12.5225 11.2569 12.5307C11.3639 12.5842 11.4709 12.6089 11.5779 12.6089C11.7589 12.6089 11.9276 12.5348 12.0716 12.3867L12.9562 11.5021C13.0261 11.4322 13.129 11.3499 13.2442 11.3499C13.3512 11.3499 13.4499 11.4281 13.5116 11.4939C13.5157 11.498 13.5157 11.498 13.5199 11.5021L14.9434 12.9257C15.145 13.1273 15.145 13.3125 14.9352 13.5305L14.9311 13.5346C14.8365 13.6375 14.7336 13.7362 14.6225 13.8432C14.4579 14.0037 14.2851 14.1724 14.1206 14.3657Z" fill="#BA9166"/>
</svg>
